<mxfile host="Electron" modified="2024-07-10T14:20:42.510Z" agent="Mozilla/5.0 (Windows NT 10.0; Win64; x64) AppleWebKit/537.36 (KHTML, like Gecko) draw.io/24.6.4 Chrome/124.0.6367.207 Electron/30.0.6 Safari/537.36" etag="uu_0fY9Qb4OApZgAsPLk" version="24.6.4" type="device">
  <diagram name="Page-1" id="k4DYjNzFidn_M6baDWtX">
    <mxGraphModel dx="902" dy="541" grid="1" gridSize="10" guides="1" tooltips="1" connect="1" arrows="1" fold="1" page="1" pageScale="1" pageWidth="850" pageHeight="1100" math="0" shadow="0">
      <root>
        <mxCell id="0" />
        <mxCell id="1" parent="0" />
        <mxCell id="I6FsVLA37qWMRiuRUHIX-4" value="Pump On (1)" style="rounded=1;whiteSpace=wrap;html=1;" vertex="1" parent="1">
          <mxGeometry x="200" y="530" width="120" height="60" as="geometry" />
        </mxCell>
        <mxCell id="I6FsVLA37qWMRiuRUHIX-5" value="Pump Off (0)" style="rounded=1;whiteSpace=wrap;html=1;" vertex="1" parent="1">
          <mxGeometry x="520" y="530" width="120" height="60" as="geometry" />
        </mxCell>
        <mxCell id="I6FsVLA37qWMRiuRUHIX-6" value="" style="endArrow=classic;html=1;rounded=0;entryX=0;entryY=0.25;entryDx=0;entryDy=0;exitX=1;exitY=0.25;exitDx=0;exitDy=0;" edge="1" parent="1" source="I6FsVLA37qWMRiuRUHIX-4" target="I6FsVLA37qWMRiuRUHIX-5">
          <mxGeometry width="50" height="50" relative="1" as="geometry">
            <mxPoint x="320" y="540" as="sourcePoint" />
            <mxPoint x="520" y="539" as="targetPoint" />
          </mxGeometry>
        </mxCell>
        <mxCell id="I6FsVLA37qWMRiuRUHIX-7" value="Tank Full or Well Empty" style="edgeLabel;html=1;align=center;verticalAlign=middle;resizable=0;points=[];" vertex="1" connectable="0" parent="I6FsVLA37qWMRiuRUHIX-6">
          <mxGeometry x="0.1776" y="-2" relative="1" as="geometry">
            <mxPoint x="-26" as="offset" />
          </mxGeometry>
        </mxCell>
        <mxCell id="I6FsVLA37qWMRiuRUHIX-8" value="" style="endArrow=classic;html=1;rounded=0;entryX=1;entryY=0.75;entryDx=0;entryDy=0;exitX=0;exitY=0.75;exitDx=0;exitDy=0;" edge="1" parent="1" source="I6FsVLA37qWMRiuRUHIX-5" target="I6FsVLA37qWMRiuRUHIX-4">
          <mxGeometry width="50" height="50" relative="1" as="geometry">
            <mxPoint x="520" y="580" as="sourcePoint" />
            <mxPoint x="455" y="580" as="targetPoint" />
          </mxGeometry>
        </mxCell>
        <mxCell id="I6FsVLA37qWMRiuRUHIX-9" value="Tank Empty and not Well Empty" style="edgeLabel;html=1;align=center;verticalAlign=middle;resizable=0;points=[];" vertex="1" connectable="0" parent="I6FsVLA37qWMRiuRUHIX-8">
          <mxGeometry x="0.0379" y="1" relative="1" as="geometry">
            <mxPoint as="offset" />
          </mxGeometry>
        </mxCell>
        <mxCell id="I6FsVLA37qWMRiuRUHIX-10" value="" style="endArrow=classic;html=1;rounded=0;entryX=0.5;entryY=0;entryDx=0;entryDy=0;" edge="1" parent="1" target="I6FsVLA37qWMRiuRUHIX-4">
          <mxGeometry width="50" height="50" relative="1" as="geometry">
            <mxPoint x="260" y="490" as="sourcePoint" />
            <mxPoint x="360" y="380" as="targetPoint" />
          </mxGeometry>
        </mxCell>
        <mxCell id="I6FsVLA37qWMRiuRUHIX-11" value="User" style="edgeLabel;html=1;align=center;verticalAlign=middle;resizable=0;points=[];" vertex="1" connectable="0" parent="I6FsVLA37qWMRiuRUHIX-10">
          <mxGeometry x="-0.2184" y="-1" relative="1" as="geometry">
            <mxPoint as="offset" />
          </mxGeometry>
        </mxCell>
        <mxCell id="I6FsVLA37qWMRiuRUHIX-12" value="" style="endArrow=classic;html=1;rounded=0;entryX=0.5;entryY=0;entryDx=0;entryDy=0;" edge="1" parent="1">
          <mxGeometry width="50" height="50" relative="1" as="geometry">
            <mxPoint x="579.87" y="490" as="sourcePoint" />
            <mxPoint x="579.87" y="530" as="targetPoint" />
          </mxGeometry>
        </mxCell>
        <mxCell id="I6FsVLA37qWMRiuRUHIX-13" value="User" style="edgeLabel;html=1;align=center;verticalAlign=middle;resizable=0;points=[];" vertex="1" connectable="0" parent="I6FsVLA37qWMRiuRUHIX-12">
          <mxGeometry x="-0.2184" y="-1" relative="1" as="geometry">
            <mxPoint as="offset" />
          </mxGeometry>
        </mxCell>
        <mxCell id="I6FsVLA37qWMRiuRUHIX-14" value="Valve Open (1)" style="rounded=1;whiteSpace=wrap;html=1;" vertex="1" parent="1">
          <mxGeometry x="200" y="680" width="120" height="60" as="geometry" />
        </mxCell>
        <mxCell id="I6FsVLA37qWMRiuRUHIX-15" value="Valve Closed (0)" style="rounded=1;whiteSpace=wrap;html=1;" vertex="1" parent="1">
          <mxGeometry x="520" y="680" width="120" height="60" as="geometry" />
        </mxCell>
        <mxCell id="I6FsVLA37qWMRiuRUHIX-16" value="" style="endArrow=classic;html=1;rounded=0;entryX=0;entryY=0.5;entryDx=0;entryDy=0;exitX=1;exitY=0.5;exitDx=0;exitDy=0;" edge="1" parent="1" source="I6FsVLA37qWMRiuRUHIX-14" target="I6FsVLA37qWMRiuRUHIX-15">
          <mxGeometry width="50" height="50" relative="1" as="geometry">
            <mxPoint x="320" y="690" as="sourcePoint" />
            <mxPoint x="520" y="689" as="targetPoint" />
          </mxGeometry>
        </mxCell>
        <mxCell id="I6FsVLA37qWMRiuRUHIX-17" value="Rain (sensor == 0, active low)" style="edgeLabel;html=1;align=center;verticalAlign=middle;resizable=0;points=[];" vertex="1" connectable="0" parent="I6FsVLA37qWMRiuRUHIX-16">
          <mxGeometry x="0.1776" y="-2" relative="1" as="geometry">
            <mxPoint x="-26" as="offset" />
          </mxGeometry>
        </mxCell>
        <mxCell id="I6FsVLA37qWMRiuRUHIX-20" value="" style="endArrow=classic;html=1;rounded=0;entryX=0.5;entryY=0;entryDx=0;entryDy=0;" edge="1" parent="1" target="I6FsVLA37qWMRiuRUHIX-14">
          <mxGeometry width="50" height="50" relative="1" as="geometry">
            <mxPoint x="260" y="640" as="sourcePoint" />
            <mxPoint x="360" y="530" as="targetPoint" />
          </mxGeometry>
        </mxCell>
        <mxCell id="I6FsVLA37qWMRiuRUHIX-21" value="User" style="edgeLabel;html=1;align=center;verticalAlign=middle;resizable=0;points=[];" vertex="1" connectable="0" parent="I6FsVLA37qWMRiuRUHIX-20">
          <mxGeometry x="-0.2184" y="-1" relative="1" as="geometry">
            <mxPoint as="offset" />
          </mxGeometry>
        </mxCell>
        <mxCell id="I6FsVLA37qWMRiuRUHIX-22" value="" style="endArrow=classic;html=1;rounded=0;entryX=0.5;entryY=0;entryDx=0;entryDy=0;" edge="1" parent="1">
          <mxGeometry width="50" height="50" relative="1" as="geometry">
            <mxPoint x="579.87" y="640" as="sourcePoint" />
            <mxPoint x="579.87" y="680" as="targetPoint" />
          </mxGeometry>
        </mxCell>
        <mxCell id="I6FsVLA37qWMRiuRUHIX-23" value="User" style="edgeLabel;html=1;align=center;verticalAlign=middle;resizable=0;points=[];" vertex="1" connectable="0" parent="I6FsVLA37qWMRiuRUHIX-22">
          <mxGeometry x="-0.2184" y="-1" relative="1" as="geometry">
            <mxPoint as="offset" />
          </mxGeometry>
        </mxCell>
        <mxCell id="I6FsVLA37qWMRiuRUHIX-24" value="" style="endArrow=classic;html=1;rounded=1;exitX=0.75;exitY=1;exitDx=0;exitDy=0;entryX=0.25;entryY=1;entryDx=0;entryDy=0;curved=0;" edge="1" parent="1" source="I6FsVLA37qWMRiuRUHIX-4" target="I6FsVLA37qWMRiuRUHIX-5">
          <mxGeometry width="50" height="50" relative="1" as="geometry">
            <mxPoint x="370" y="650" as="sourcePoint" />
            <mxPoint x="420" y="600" as="targetPoint" />
            <Array as="points">
              <mxPoint x="290" y="610" />
              <mxPoint x="550" y="610" />
            </Array>
          </mxGeometry>
        </mxCell>
        <mxCell id="I6FsVLA37qWMRiuRUHIX-25" value="Text" style="edgeLabel;html=1;align=center;verticalAlign=middle;resizable=0;points=[];" vertex="1" connectable="0" parent="I6FsVLA37qWMRiuRUHIX-24">
          <mxGeometry x="-0.3658" y="1" relative="1" as="geometry">
            <mxPoint x="55" as="offset" />
          </mxGeometry>
        </mxCell>
        <mxCell id="I6FsVLA37qWMRiuRUHIX-26" value="User event expired" style="edgeLabel;html=1;align=center;verticalAlign=middle;resizable=0;points=[];" vertex="1" connectable="0" parent="I6FsVLA37qWMRiuRUHIX-24">
          <mxGeometry x="-0.0131" relative="1" as="geometry">
            <mxPoint as="offset" />
          </mxGeometry>
        </mxCell>
        <mxCell id="I6FsVLA37qWMRiuRUHIX-27" value="" style="endArrow=classic;html=1;rounded=1;exitX=0.75;exitY=1;exitDx=0;exitDy=0;entryX=0.25;entryY=1;entryDx=0;entryDy=0;curved=0;" edge="1" parent="1">
          <mxGeometry width="50" height="50" relative="1" as="geometry">
            <mxPoint x="290" y="740" as="sourcePoint" />
            <mxPoint x="550" y="740" as="targetPoint" />
            <Array as="points">
              <mxPoint x="290" y="760" />
              <mxPoint x="550" y="760" />
            </Array>
          </mxGeometry>
        </mxCell>
        <mxCell id="I6FsVLA37qWMRiuRUHIX-28" value="Text" style="edgeLabel;html=1;align=center;verticalAlign=middle;resizable=0;points=[];" vertex="1" connectable="0" parent="I6FsVLA37qWMRiuRUHIX-27">
          <mxGeometry x="-0.3658" y="1" relative="1" as="geometry">
            <mxPoint x="55" as="offset" />
          </mxGeometry>
        </mxCell>
        <mxCell id="I6FsVLA37qWMRiuRUHIX-29" value="User event expired" style="edgeLabel;html=1;align=center;verticalAlign=middle;resizable=0;points=[];" vertex="1" connectable="0" parent="I6FsVLA37qWMRiuRUHIX-27">
          <mxGeometry x="-0.0131" relative="1" as="geometry">
            <mxPoint as="offset" />
          </mxGeometry>
        </mxCell>
        <mxCell id="I6FsVLA37qWMRiuRUHIX-30" value="Sensors" style="swimlane;fontStyle=0;childLayout=stackLayout;horizontal=1;startSize=30;horizontalStack=0;resizeParent=1;resizeParentMax=0;resizeLast=0;collapsible=1;marginBottom=0;whiteSpace=wrap;html=1;" vertex="1" parent="1">
          <mxGeometry x="350" y="350" width="140" height="150" as="geometry">
            <mxRectangle x="350" y="350" width="80" height="30" as="alternateBounds" />
          </mxGeometry>
        </mxCell>
        <mxCell id="I6FsVLA37qWMRiuRUHIX-31" value="Tank Full: active high" style="text;strokeColor=none;fillColor=none;align=left;verticalAlign=middle;spacingLeft=4;spacingRight=4;overflow=hidden;points=[[0,0.5],[1,0.5]];portConstraint=eastwest;rotatable=0;whiteSpace=wrap;html=1;" vertex="1" parent="I6FsVLA37qWMRiuRUHIX-30">
          <mxGeometry y="30" width="140" height="30" as="geometry" />
        </mxCell>
        <mxCell id="I6FsVLA37qWMRiuRUHIX-32" value="Tank Empty: active high" style="text;strokeColor=none;fillColor=none;align=left;verticalAlign=middle;spacingLeft=4;spacingRight=4;overflow=hidden;points=[[0,0.5],[1,0.5]];portConstraint=eastwest;rotatable=0;whiteSpace=wrap;html=1;" vertex="1" parent="I6FsVLA37qWMRiuRUHIX-30">
          <mxGeometry y="60" width="140" height="30" as="geometry" />
        </mxCell>
        <mxCell id="I6FsVLA37qWMRiuRUHIX-33" value="Well Empty: active high" style="text;strokeColor=none;fillColor=none;align=left;verticalAlign=middle;spacingLeft=4;spacingRight=4;overflow=hidden;points=[[0,0.5],[1,0.5]];portConstraint=eastwest;rotatable=0;whiteSpace=wrap;html=1;" vertex="1" parent="I6FsVLA37qWMRiuRUHIX-30">
          <mxGeometry y="90" width="140" height="30" as="geometry" />
        </mxCell>
        <mxCell id="I6FsVLA37qWMRiuRUHIX-34" value="Rain: active low" style="text;strokeColor=none;fillColor=none;align=left;verticalAlign=middle;spacingLeft=4;spacingRight=4;overflow=hidden;points=[[0,0.5],[1,0.5]];portConstraint=eastwest;rotatable=0;whiteSpace=wrap;html=1;" vertex="1" parent="I6FsVLA37qWMRiuRUHIX-30">
          <mxGeometry y="120" width="140" height="30" as="geometry" />
        </mxCell>
      </root>
    </mxGraphModel>
  </diagram>
</mxfile>
